<svg xmlns="http://www.w3.org/2000/svg" xmlns:xlink="http://www.w3.org/1999/xlink" width="500" zoomAndPan="magnify" viewBox="0 0 375 374.999991" height="500" preserveAspectRatio="xMidYMid meet" version="1.0"><defs><clipPath id="7ef98ef1e1"><path d="M 0 330 L 375 330 L 375 346.078125 L 0 346.078125 Z M 0 330 " clip-rule="nonzero"/></clipPath></defs><rect x="-37.5" width="450" fill="#ffffff" y="-37.499999" height="449.999989" fill-opacity="1"/><rect x="-37.5" width="450" fill="#fff9f3" y="-37.499999" height="449.999989" fill-opacity="1"/><path fill="#5d5340" d="M 168.515625 33.125 L 11.335938 88.21875 L 11.335938 102.113281 L 363.667969 102.113281 L 363.667969 88.21875 L 206.480469 33.125 C 194.210938 28.828125 180.785156 28.828125 168.515625 33.125 " fill-opacity="1" fill-rule="nonzero"/><path fill="#5d5340" d="M 353.347656 121.035156 L 21.652344 121.035156 L 21.652344 106.128906 L 353.347656 106.128906 L 353.347656 121.035156 " fill-opacity="1" fill-rule="nonzero"/><path fill="#5d5340" d="M 79.410156 134.625 L 21.582031 134.625 L 21.582031 125.449219 L 79.410156 125.449219 L 79.410156 134.625 " fill-opacity="1" fill-rule="nonzero"/><path fill="#5d5340" d="M 72.671875 144.539062 L 28.316406 144.539062 L 28.316406 136.386719 L 72.671875 136.386719 L 72.671875 144.539062 " fill-opacity="1" fill-rule="nonzero"/><path fill="#5d5340" d="M 68.191406 154.503906 L 32.796875 154.503906 L 32.796875 146.347656 L 68.191406 146.347656 L 68.191406 154.503906 " fill-opacity="1" fill-rule="nonzero"/><path fill="#5d5340" d="M 21.582031 298.078125 L 79.410156 298.078125 L 79.410156 307.25 L 21.582031 307.25 L 21.582031 298.078125 " fill-opacity="1" fill-rule="nonzero"/><path fill="#5d5340" d="M 28.316406 288.160156 L 72.671875 288.160156 L 72.671875 296.3125 L 28.316406 296.3125 L 28.316406 288.160156 " fill-opacity="1" fill-rule="nonzero"/><path fill="#5d5340" d="M 32.796875 278.199219 L 68.191406 278.199219 L 68.191406 286.355469 L 32.796875 286.355469 L 32.796875 278.199219 " fill-opacity="1" fill-rule="nonzero"/><path fill="#5d5340" d="M 68.1875 275.863281 L 32.804688 275.863281 L 32.804688 156.75 L 68.1875 156.75 L 68.1875 275.863281 " fill-opacity="1" fill-rule="nonzero"/><path fill="#5d5340" d="M 170.363281 134.582031 L 112.535156 134.582031 L 112.535156 125.402344 L 170.363281 125.402344 L 170.363281 134.582031 " fill-opacity="1" fill-rule="nonzero"/><path fill="#5d5340" d="M 163.628906 144.496094 L 119.269531 144.496094 L 119.269531 136.339844 L 163.628906 136.339844 L 163.628906 144.496094 " fill-opacity="1" fill-rule="nonzero"/><path fill="#5d5340" d="M 159.144531 154.457031 L 123.753906 154.457031 L 123.753906 146.300781 L 159.144531 146.300781 L 159.144531 154.457031 " fill-opacity="1" fill-rule="nonzero"/><path fill="#5d5340" d="M 112.535156 298.03125 L 170.363281 298.03125 L 170.363281 307.203125 L 112.535156 307.203125 L 112.535156 298.03125 " fill-opacity="1" fill-rule="nonzero"/><path fill="#5d5340" d="M 119.269531 288.113281 L 163.628906 288.113281 L 163.628906 296.269531 L 119.269531 296.269531 L 119.269531 288.113281 " fill-opacity="1" fill-rule="nonzero"/><path fill="#5d5340" d="M 123.753906 278.152344 L 159.144531 278.152344 L 159.144531 286.308594 L 123.753906 286.308594 L 123.753906 278.152344 " fill-opacity="1" fill-rule="nonzero"/><path fill="#5d5340" d="M 159.140625 275.8125 L 123.757812 275.8125 L 123.757812 156.707031 L 159.140625 156.707031 L 159.140625 275.8125 " fill-opacity="1" fill-rule="nonzero"/><path fill="#5d5340" d="M 261.316406 134.53125 L 203.488281 134.53125 L 203.488281 125.359375 L 261.316406 125.359375 L 261.316406 134.53125 " fill-opacity="1" fill-rule="nonzero"/><path fill="#5d5340" d="M 254.582031 144.449219 L 210.222656 144.449219 L 210.222656 136.296875 L 254.582031 136.296875 L 254.582031 144.449219 " fill-opacity="1" fill-rule="nonzero"/><path fill="#5d5340" d="M 250.101562 154.414062 L 214.707031 154.414062 L 214.707031 146.253906 L 250.101562 146.253906 L 250.101562 154.414062 " fill-opacity="1" fill-rule="nonzero"/><path fill="#5d5340" d="M 203.488281 297.988281 L 261.316406 297.988281 L 261.316406 307.160156 L 203.488281 307.160156 L 203.488281 297.988281 " fill-opacity="1" fill-rule="nonzero"/><path fill="#5d5340" d="M 210.222656 288.066406 L 254.582031 288.066406 L 254.582031 296.222656 L 210.222656 296.222656 L 210.222656 288.066406 " fill-opacity="1" fill-rule="nonzero"/><path fill="#5d5340" d="M 214.707031 278.109375 L 250.101562 278.109375 L 250.101562 286.261719 L 214.707031 286.261719 L 214.707031 278.109375 " fill-opacity="1" fill-rule="nonzero"/><path fill="#5d5340" d="M 250.09375 275.769531 L 214.714844 275.769531 L 214.714844 156.660156 L 250.09375 156.660156 L 250.09375 275.769531 " fill-opacity="1" fill-rule="nonzero"/><path fill="#5d5340" d="M 353.417969 134.582031 L 295.589844 134.582031 L 295.589844 125.402344 L 353.417969 125.402344 L 353.417969 134.582031 " fill-opacity="1" fill-rule="nonzero"/><path fill="#5d5340" d="M 346.683594 144.496094 L 302.324219 144.496094 L 302.324219 136.339844 L 346.683594 136.339844 L 346.683594 144.496094 " fill-opacity="1" fill-rule="nonzero"/><path fill="#5d5340" d="M 342.203125 154.457031 L 306.808594 154.457031 L 306.808594 146.300781 L 342.203125 146.300781 L 342.203125 154.457031 " fill-opacity="1" fill-rule="nonzero"/><path fill="#5d5340" d="M 295.589844 298.03125 L 353.417969 298.03125 L 353.417969 307.203125 L 295.589844 307.203125 L 295.589844 298.03125 " fill-opacity="1" fill-rule="nonzero"/><path fill="#5d5340" d="M 302.324219 288.113281 L 346.683594 288.113281 L 346.683594 296.269531 L 302.324219 296.269531 L 302.324219 288.113281 " fill-opacity="1" fill-rule="nonzero"/><path fill="#5d5340" d="M 306.808594 278.152344 L 342.203125 278.152344 L 342.203125 286.308594 L 306.808594 286.308594 L 306.808594 278.152344 " fill-opacity="1" fill-rule="nonzero"/><path fill="#5d5340" d="M 342.199219 275.8125 L 306.816406 275.8125 L 306.816406 156.707031 L 342.199219 156.707031 L 342.199219 275.8125 " fill-opacity="1" fill-rule="nonzero"/><path fill="#5d5340" d="M 357.695312 326.359375 L 17.300781 326.359375 L 17.300781 310.957031 L 357.695312 310.957031 L 357.695312 326.359375 " fill-opacity="1" fill-rule="nonzero"/><g clip-path="url(#7ef98ef1e1)"><path fill="#5d5340" d="M 374.769531 346.089844 L 0.230469 346.089844 L 0.230469 330.691406 L 374.769531 330.691406 L 374.769531 346.089844 " fill-opacity="1" fill-rule="nonzero"/></g></svg>